<svg width="18" height="19" viewBox="0 0 18 19" fill="none" xmlns="http://www.w3.org/2000/svg">
<path d="M13.5629 3.86078L15.6394 5.93629L13.5629 3.86078ZM14.8982 2.03233L9.28343 7.64709C8.99332 7.9368 8.79546 8.3059 8.7148 8.70789L8.19617 11.304L10.7923 10.7844C11.1942 10.704 11.5629 10.5069 11.8531 10.2167L17.4678 4.60196C17.6366 4.43324 17.7704 4.23293 17.8617 4.01248C17.953 3.79203 18 3.55576 18 3.31714C18 3.07853 17.953 2.84225 17.8617 2.6218C17.7704 2.40136 17.6366 2.20105 17.4678 2.03233C17.2991 1.8636 17.0988 1.72976 16.8784 1.63845C16.6579 1.54714 16.4216 1.50014 16.183 1.50014C15.9444 1.50014 15.7081 1.54714 15.4877 1.63845C15.2672 1.72976 15.0669 1.8636 14.8982 2.03233V2.03233Z" stroke="#6E6893" stroke-width="2" stroke-linecap="round" stroke-linejoin="round"/>
<path d="M16.0394 13.2648V16.206C16.0394 16.726 15.8328 17.2248 15.4651 17.5925C15.0973 17.9602 14.5986 18.1668 14.0786 18.1668H3.29415C2.77411 18.1668 2.27537 17.9602 1.90765 17.5925C1.53993 17.2248 1.33334 16.726 1.33334 16.206V5.42157C1.33334 4.90154 1.53993 4.4028 1.90765 4.03508C2.27537 3.66735 2.77411 3.46077 3.29415 3.46077H6.23535" stroke="#6E6893" stroke-width="2" stroke-linecap="round" stroke-linejoin="round"/>
</svg>
